<?xml version="1.0" encoding="utf-8" standalone="no"?>
<!DOCTYPE svg PUBLIC "-//W3C//DTD SVG 1.1//EN"
  "http://www.w3.org/Graphics/SVG/1.1/DTD/svg11.dtd">
<!-- Created with matplotlib (https://matplotlib.org/) -->
<svg height="1440pt" version="1.1" viewBox="0 0 1440 1440" width="1440pt" xmlns="http://www.w3.org/2000/svg" xmlns:xlink="http://www.w3.org/1999/xlink">
 <defs>
  <style type="text/css">
*{stroke-linecap:butt;stroke-linejoin:round;}
  </style>
 </defs>
 <g id="figure_1">
  <g id="patch_1">
   <path d="M 0 1440 
L 1440 1440 
L 1440 0 
L 0 0 
z
" style="fill:#ffffff;"/>
  </g>
  <g id="axes_1">
   <g id="patch_2">
    <path d="M 180 1185.726993 
L 1296 1185.726993 
L 1296 247.073007 
L 180 247.073007 
z
" style="fill:#ffffff;"/>
   </g>
   <g id="PatchCollection_1">
    <path clip-path="url(#pa7ee184298)" d="M 839.327198 -73.114687 
L 840.041488 -60.039362 
L 839.057808 -56.079835 
L 837.061877 -51.204407 
L 830.743468 -42.111272 
L 814.139277 -29.138755 
L 783.710505 0.567445 
L 765.734876 15.250546 
L 763.261391 22.301192 
L 761.926688 32.089845 
L 772.690024 34.030208 
L 776.845154 37.341859 
L 774.269627 42.305706 
L 758.347073 59.507576 
L 753.657246 75.013262 
L 765.86549 74.465111 
L 775.922699 71.487423 
L 795.979974 61.82011 
L 814.824996 54.627554 
L 823.874035 54.329576 
L 841.478232 60.064808 
L 845.48234 60.247995 
L 852.951777 57.598835 
L 860.506929 57.125367 
L 911.678694 58.912118 
L 925.895115 55.54431 
L 935.30334 59.568645 
L 943.172779 69.613191 
L 950.65038 88.09226 
L 950.421807 91.15994 
L 945.90341 99.557207 
L 937.564579 110.068532 
L 930.389022 124.508831 
L 928.282885 132.284306 
L 926.874713 140.779185 
L 924.601228 148.622689 
L 910.331747 185.320329 
L 896.421451 205.564422 
L 890.209165 219.891743 
L 882.543809 231.280475 
L 875.164168 238.43136 
L 867.286565 243.193675 
L 844.531314 248.277007 
L 838.163925 251.916806 
L 830.567956 258.164796 
L 822.58423 261.253089 
L 831.943476 260.862537 
L 841.221088 257.39062 
L 858.094668 256.114846 
L 877.523368 268.072415 
L 875.723356 277.838103 
L 867.923304 285.547764 
L 850.184412 286.758345 
L 833.596548 303.855393 
L 826.110784 309.104723 
L 818.212773 311.71299 
L 808.335157 310.93867 
L 790.3881 306.370988 
L 782.534987 301.59481 
L 789.632993 309.389717 
L 797.686107 313.451181 
L 844.421109 323.023765 
L 847.233372 322.032221 
L 862.131429 311.917511 
L 881.988703 311.764121 
L 919.793034 330.331152 
L 930.678819 344.482521 
L 946.274841 364.711342 
L 954.760611 372.587997 
L 960.895345 379.717669 
L 964.674962 390.392189 
L 971.997459 425.494061 
L 980.348534 459.588315 
L 991.291463 496.301904 
L 996.25068 506.46178 
L 1002.773172 513.578058 
L 1035.797879 529.895963 
L 1043.148948 535.297096 
L 1055.961277 550.938013 
L 1068.312379 567.558301 
L 1079.806332 580.296322 
L 1092.218658 590.583988 
L 1086.206374 595.922888 
L 1082.08798 604.307826 
L 1085.165551 615.691204 
L 1090.222727 626.540565 
L 1100.153405 643.861131 
L 1108.912646 662.707 
L 1105.684053 659.864997 
L 1102.288112 658.302349 
L 1097.647266 658.770498 
L 1093.10846 657.861704 
L 1084.741058 651.964942 
L 1076.700189 644.716864 
L 1060.704165 647.628192 
L 1051.818392 646.32448 
L 1044.108138 646.51764 
L 1058.72456 650.703543 
L 1074.720584 650.993068 
L 1109.998367 682.542553 
L 1121.924976 701.157231 
L 1129.010737 725.680397 
L 1124.186216 736.664422 
L 1116.675962 743.767801 
L 1109.671835 751.886306 
L 1103.108526 761.03612 
L 1122.659675 774.454539 
L 1126.871948 774.049384 
L 1131.198507 772.171806 
L 1135.353636 767.610496 
L 1142.365927 756.493434 
L 1145.982278 752.530162 
L 1158.16195 751.100031 
L 1168.382425 751.954084 
L 1178.562084 754.413889 
L 1187.509082 753.634721 
L 1205.541853 758.40977 
L 1214.807221 762.714217 
L 1237.762474 782.052903 
L 1242.725772 792.604505 
L 1245.003338 806.201321 
L 1245.272727 821.248461 
L 1241.411477 834.968149 
L 1236.978795 847.32934 
L 1234.244083 863.252803 
L 1232.301213 868.979015 
L 1229.590991 873.457787 
L 1217.427646 885.972849 
L 1209.34596 891.108108 
L 1205.933693 888.855754 
L 1202.292852 889.167159 
L 1201.909176 892.167751 
L 1205.7541 898.54158 
L 1205.80308 906.223658 
L 1198.619359 911.902956 
L 1191.321352 914.324954 
L 1179.109026 911.302258 
L 1162.153813 921.868553 
L 1174.341648 927.289697 
L 1176.798807 933.05467 
L 1173.745726 943.176268 
L 1166.080369 947.686152 
L 1157.582354 949.680731 
L 1148.880256 950.159596 
L 1141.672045 952.63204 
L 1134.757714 957.390487 
L 1143.435322 954.860975 
L 1149.451688 957.075993 
L 1153.231305 965.561666 
L 1156.659899 967.988658 
L 1173.615113 971.611004 
L 1184.113141 971.584858 
L 1204.358172 969.525474 
L 1214.080685 969.577785 
L 1217.550096 971.107665 
L 1217.607239 978.124535 
L 1216.097025 995.325667 
L 1213.419456 998.866849 
L 1186.578463 1013.27093 
L 1181.076386 1023.313034 
L 1179.533519 1029.390029 
L 1163.835456 1028.315005 
L 1156.480306 1034.73646 
L 1143.770018 1038.99217 
L 1133.941382 1043.522765 
L 1124.324992 1049.23782 
L 1116.414736 1050.94808 
L 1082.226756 1044.162339 
L 1061.589885 1044.717874 
L 1033.630518 1050.631879 
L 1026.43047 1049.657361 
L 1015.630399 1043.994376 
L 1004.573183 1040.162299 
L 991.850651 1038.474915 
L 980.866905 1033.235266 
L 987.720011 1043.309559 
L 972.483176 1053.006219 
L 965.454559 1054.934699 
L 958.17696 1054.6316 
L 943.287066 1057.262264 
L 929.491057 1055.921281 
L 931.56454 1062.803632 
L 935.258441 1068.796899 
L 932.262503 1071.402259 
L 929.091054 1072.05182 
L 902.817412 1067.529205 
L 899.094938 1068.385088 
L 895.8541 1072.559845 
L 886.298935 1070.308784 
L 877.01316 1063.267335 
L 867.139626 1058.538507 
L 856.780374 1056.31458 
L 848.543585 1057.081764 
L 814.673974 1068.185607 
L 807.914746 1079.308125 
L 804.535132 1095.04485 
L 799.645304 1108.98404 
L 791.669741 1119.695594 
L 782.175801 1121.09306 
L 773.24513 1113.680996 
L 756.257263 1105.486179 
L 750.477633 1099.944407 
L 748.636805 1099.61789 
L 746.738833 1101.602337 
L 740.077565 1104.104398 
L 733.17956 1104.219558 
L 722.546837 1106.426382 
L 704.048756 1113.086883 
L 696.575237 1117.601998 
L 680.513907 1130.038354 
L 677.244498 1133.477887 
L 671.403643 1145.990704 
L 662.481135 1148.195501 
L 654.321898 1140.179529 
L 645.032041 1137.380098 
L 635.231977 1140.122281 
L 629.305407 1144.382681 
L 626.542123 1140.923712 
L 626.452327 1133.802634 
L 633.607476 1125.309085 
L 652.697398 1118.885047 
L 669.456692 1102.184748 
L 677.677154 1091.981465 
L 680.9384 1086.235146 
L 684.954753 1082.570373 
L 690.207849 1081.183485 
L 692.905826 1074.822944 
L 716.175367 1049.186182 
L 718.093747 1043.290176 
L 719.252938 1032.730473 
L 721.175399 1022.548126 
L 740.118381 1015.945233 
L 749.171502 994.45959 
L 751.661314 992.753126 
L 778.081897 988.804297 
L 797.677944 989.117168 
L 817.139297 993.332856 
L 827.114872 993.710628 
L 837.127183 992.258032 
L 844.980296 986.444214 
L 858.421201 965.430803 
L 865.980434 956.158627 
L 874.641716 947.77146 
L 882.74381 938.176716 
L 895.886754 920.365853 
L 887.000981 926.506136 
L 876.27438 936.23755 
L 870.049849 941.875858 
L 850.290535 947.554907 
L 841.776193 953.340143 
L 826.861809 966.392577 
L 823.992403 967.47194 
L 801.486132 964.337992 
L 784.739083 947.410534 
L 774.03289 940.456914 
L 769.612453 939.668469 
L 765.040994 941.73792 
L 755.26542 943.852634 
L 745.293926 943.491477 
L 750.383755 935.652393 
L 757.294005 931.265215 
L 741.816352 928.217988 
L 737.514283 925.827846 
L 732.612209 920.319711 
L 720.473354 919.377032 
L 714.681479 920.78111 
L 704.914068 928.059991 
L 689.477232 935.797044 
L 670.881191 925.070443 
L 667.236269 920.365853 
L 667.330147 911.269251 
L 664.542374 904.056204 
L 659.383156 901.511105 
L 665.983199 892.094906 
L 673.946517 885.820381 
L 691.465 879.579188 
L 717.995787 864.743069 
L 732.873436 858.413565 
L 746.702098 847.476107 
L 752.416421 840.80129 
L 756.563388 831.651509 
L 760.6777 820.404185 
L 766.547127 811.256997 
L 760.853212 809.075452 
L 758.306256 802.163135 
L 758.991975 795.141947 
L 761.620564 788.907485 
L 759.265446 781.081711 
L 755.077663 772.887786 
L 755.310318 766.501744 
L 756.420529 759.668937 
L 745.74699 760.034452 
L 735.106103 762.172947 
L 725.461142 767.015581 
L 716.11006 773.590174 
L 707.803883 774.805652 
L 707.938578 769.55032 
L 711.542683 763.045721 
L 720.959071 753.743133 
L 731.040771 746.020652 
L 734.624468 740.149253 
L 737.448976 733.320338 
L 742.453091 727.831179 
L 755.620524 717.451284 
L 780.84518 705.748909 
L 784.612552 705.059016 
L 794.502413 706.418234 
L 804.224926 704.649141 
L 812.739268 700.432626 
L 821.229119 699.523327 
L 840.339449 711.674607 
L 834.653698 692.866872 
L 843.082324 688.354322 
L 855.302813 705.373234 
L 859.849782 707.162599 
L 869.433518 704.696961 
L 865.735535 701.82707 
L 861.417139 701.6562 
L 855.759959 699.092558 
L 851.004826 693.633461 
L 843.094569 676.278964 
L 843.523144 665.953343 
L 848.853791 655.196486 
L 854.755871 645.282684 
L 849.804818 643.308981 
L 845.837445 639.511553 
L 844.702743 629.564593 
L 846.257856 620.765025 
L 856.866089 612.986164 
L 859.996722 601.159653 
L 861.327343 588.12522 
L 859.564066 582.137709 
L 849.037466 583.100023 
L 843.919065 585.539973 
L 839.327198 589.406972 
L 834.621044 589.177113 
L 821.616877 574.72682 
L 814.200502 563.7749 
L 800.898373 540.524718 
L 799.004483 526.588133 
L 809.657615 496.415124 
L 826.098539 477.036814 
L 845.466014 470.274055 
L 841.71905 468.980284 
L 812.208652 468.71723 
L 802.482057 471.098507 
L 793.465671 479.031472 
L 788.37176 481.465311 
L 783.020705 482.366214 
L 778.143121 486.308693 
L 773.379825 491.778386 
L 768.420608 495.275747 
L 758.567482 494.369748 
L 753.787859 495.523456 
L 750.355183 492.359064 
L 747.481695 487.123802 
L 743.718405 485.727415 
L 739.518377 487.336421 
L 730.636686 494.390984 
L 721.64479 498.551744 
L 710.771249 494.107832 
L 696.518094 485.819572 
L 693.705831 488.845791 
L 690.546626 496.535418 
L 688.730288 508.52413 
L 678.607772 498.113164 
L 669.983226 484.167603 
L 667.089329 475.389466 
L 666.873001 465.495632 
L 671.554665 461.652996 
L 676.640412 465.168394 
L 684.220054 441.616169 
L 699.297704 410.820996 
L 704.620188 401.759173 
L 708.330417 389.916581 
L 707.693678 382.150012 
L 704.367126 375.586849 
L 690.350707 360.649494 
L 690.534381 348.461358 
L 692.036432 334.661684 
L 695.848702 326.368969 
L 697.456876 324.787709 
L 716.077407 325.006342 
L 708.816134 320.719622 
L 694.34257 308.191185 
L 694.599714 303.745676 
L 698.003818 292.125858 
L 696.428298 293.305748 
L 693.326237 298.674494 
L 687.403749 311.64725 
L 683.787398 314.670524 
L 673.550596 317.743294 
L 671.697523 324.117182 
L 670.052614 325.77878 
L 664.938295 326.500114 
L 663.370937 332.434958 
L 662.232154 332.813416 
L 660.779083 326.412685 
L 660.636225 315.78742 
L 662.672973 305.998105 
L 666.562795 298.3304 
L 681.562894 280.857113 
L 674.260805 286.252133 
L 657.709676 302.385017 
L 649.256559 312.969214 
L 646.999401 316.539197 
L 646.293274 319.545323 
L 646.342254 323.009184 
L 650.138197 341.547466 
L 649.056557 350.108726 
L 634.795239 406.381675 
L 632.09318 411.9985 
L 629.611531 414.934042 
L 627.264577 415.608506 
L 620.231878 414.539373 
L 617.093082 410.347055 
L 617.121653 405.59115 
L 618.440029 398.449995 
L 624.354354 371.785632 
L 626.921718 364.356678 
L 630.733988 357.439997 
L 639.138125 345.31046 
L 638.934042 344.518836 
L 633.338086 346.900644 
L 630.954397 346.116498 
L 629.244182 343.712576 
L 630.354393 307.577207 
L 634.893199 295.635504 
L 636.591169 278.227505 
L 640.525889 263.279111 
L 645.081021 252.367006 
L 648.54635 238.372176 
L 653.770874 232.139644 
L 655.170883 222.59268 
L 661.032146 212.24208 
L 665.562788 201.396236 
L 663.121956 202.468345 
L 634.146255 230.650829 
L 626.770696 235.767475 
L 616.709406 234.398053 
L 609.015477 231.236032 
L 603.003193 224.580469 
L 600.317461 211.781289 
L 592.892922 211.439388 
L 586.54186 209.223969 
L 586.619412 207.49862 
L 594.815384 200.502659 
L 607.946083 198.104204 
L 620.235959 186.888151 
L 609.301194 179.298886 
L 610.223649 176.891523 
L 619.762487 170.419513 
L 631.880934 148.652749 
L 634.338093 128.552497 
L 628.542137 119.087624 
L 626.444164 112.874828 
L 614.860414 105.943563 
L 612.925707 97.055254 
L 614.272655 92.093582 
L 618.052272 87.241521 
L 623.746187 83.457226 
L 632.676858 79.837749 
L 624.570682 75.957175 
L 621.546172 71.373158 
L 619.252279 64.726611 
L 619.040033 60.873841 
L 623.235979 43.66847 
L 625.680893 36.560116 
L 630.456435 27.477853 
L 652.134129 27.992188 
L 654.628023 23.976061 
L 657.085182 23.822424 
L 668.166887 27.477853 
L 666.521978 23.538184 
L 648.395328 1.90946 
L 646.770828 -2.217868 
L 651.938209 -13.921942 
L 652.313722 -19.14446 
L 651.554533 -24.735982 
L 653.032094 -28.991423 
L 658.77907 -31.007873 
L 676.297553 -30.806196 
L 680.615949 -32.792257 
L 678.648589 -38.459487 
L 674.571011 -45.920977 
L 673.775087 -52.19317 
L 674.730196 -57.739691 
L 674.954687 -68.919462 
L 675.750611 -73.872818 
L 679.909822 -81.295401 
L 683.346579 -83.502951 
L 687.607832 -84.795005 
L 697.224221 -82.312958 
L 700.889552 -79.315608 
L 705.097743 -72.239447 
L 708.207967 -72.809901 
L 720.183556 -80.497139 
L 723.78358 -81.600649 
L 728.685653 -72.69268 
L 749.134767 -79.80071 
L 776.645152 -82.986212 
L 793.171792 -87.669913 
L 810.58007 -89.370485 
L 826.833238 -94.687114 
L 844.057841 -92.247739 
L 844.633355 -89.151027 
L 843.731308 -84.857657 
L 839.327198 -73.114687 
" style="fill:#ffffff;stroke:#000000;"/>
    <path clip-path="url(#pa7ee184298)" d="M 499.194346 455.143218 
L 505.712757 456.397306 
L 511.553611 451.678826 
L 518.541412 436.778494 
L 523.406751 435.841938 
L 528.765969 437.050139 
L 539.300733 435.176962 
L 558.006978 428.20804 
L 566.345809 428.093491 
L 578.137723 431.750781 
L 586.921454 431.672077 
L 594.725587 442.337546 
L 598.909288 459.111199 
L 608.65221 475.638018 
L 621.386987 489.979335 
L 621.897195 498.735655 
L 617.346144 503.430507 
L 607.823633 509.25849 
L 607.864449 515.48274 
L 614.146123 512.343212 
L 619.566567 510.896347 
L 632.615633 512.286756 
L 637.178928 518.613541 
L 640.334051 528.073368 
L 641.987123 535.831313 
L 640.860585 544.252886 
L 637.350358 541.585134 
L 633.782987 534.045712 
L 629.819696 530.571376 
L 625.211502 528.692691 
L 627.301312 539.042625 
L 626.476817 552.858671 
L 628.489075 554.162119 
L 634.680952 554.400353 
L 630.587048 568.509015 
L 622.121686 572.331296 
L 612.248152 573.76314 
L 609.868544 578.747439 
L 608.076696 585.163589 
L 602.92156 594.719098 
L 596.125597 600.102937 
L 587.725541 599.018217 
L 579.492834 594.767811 
L 583.027551 599.783105 
L 584.59899 604.946986 
L 578.435684 606.884885 
L 572.002989 605.82919 
L 568.864193 609.217856 
L 568.66011 615.739745 
L 570.835634 624.131311 
L 575.137703 630.076518 
L 578.574461 643.453925 
L 581.427541 658.254155 
L 585.860223 667.177139 
L 586.770433 678.234898 
L 586.117367 683.660113 
L 586.925536 693.400757 
L 585.039809 696.828802 
L 586.456145 705.953812 
L 591.676588 724.795357 
L 593.954154 735.264484 
L 595.427633 758.057697 
L 591.741894 766.576118 
L 586.794923 774.650355 
L 583.562249 784.203804 
L 581.064273 794.502639 
L 579.558141 811.06908 
L 568.843784 830.434059 
L 564.284571 835.235541 
L 558.998822 838.189433 
L 570.549918 851.677466 
L 561.10904 857.681019 
L 550.815094 859.572138 
L 539.427264 856.202338 
L 532.329258 856.615339 
L 525.851665 860.970122 
L 523.300627 863.605443 
L 521.259798 862.33451 
L 516.9863 851.290796 
L 513.851586 862.693858 
L 507.288277 866.319426 
L 496.051468 865.547927 
L 477.271753 868.580151 
L 470.047216 871.823485 
L 467.047196 876.891046 
L 464.81861 882.743697 
L 461.887978 886.198229 
L 458.573671 888.01422 
L 444.075616 892.320059 
L 441.218454 894.041542 
L 434.504124 903.461341 
L 425.699985 908.898871 
L 418.410141 910.529844 
L 411.936629 905.054122 
L 409.275387 901.762357 
L 406.271286 900.089353 
L 396.328363 900.347277 
L 399.467159 902.040045 
L 401.495744 905.906518 
L 402.479424 913.308756 
L 401.348804 920.557006 
L 396.442649 924.233897 
L 390.58955 924.912364 
L 381.356836 932.416579 
L 369.136347 934.462181 
L 362.536304 941.3635 
L 322.156446 953.012328 
L 319.866635 953.150012 
L 314.291088 950.185834 
L 308.24615 948.873792 
L 302.229784 949.798811 
L 285.307224 956.302794 
L 277.111252 955.011726 
L 287.5603 938.833921 
L 301.601209 930.653259 
L 303.062443 928.408896 
L 298.470576 927.309449 
L 271.788768 932.995468 
L 262.519319 937.834942 
L 253.253952 939.241353 
L 257.543776 931.850793 
L 269.498957 921.716982 
L 275.911244 916.937256 
L 279.825555 915.044108 
L 284.286809 909.077177 
L 296.88281 902.291275 
L 256.307033 916.277689 
L 245.64982 914.575678 
L 243.139599 910.675092 
L 234.837504 912.503596 
L 231.690544 903.058123 
L 243.988585 888.723237 
L 251.155979 882.54472 
L 259.666239 879.207565 
L 267.858129 874.414248 
L 270.898966 868.546911 
L 267.041798 866.678538 
L 242.490615 868.167964 
L 230.727273 866.917935 
L 231.364012 862.261306 
L 233.531373 857.101579 
L 245.715126 848.26325 
L 252.307007 846.842316 
L 258.184596 847.682909 
L 263.92341 849.950594 
L 268.588746 852.910646 
L 282.397001 851.210793 
L 276.633697 845.561187 
L 275.617364 834.065615 
L 271.201009 830.199906 
L 276.850025 824.858754 
L 283.315374 821.610257 
L 294.090955 810.545565 
L 297.927715 808.860611 
L 319.250304 806.167736 
L 342.246374 800.334648 
L 365.042443 792.274627 
L 353.35257 787.768965 
L 347.752533 781.816864 
L 338.756555 793.843072 
L 332.278962 798.438351 
L 313.984964 800.892664 
L 308.19717 799.541235 
L 300.042015 795.814829 
L 297.507304 797.234363 
L 295.152187 800.112772 
L 283.045985 805.999811 
L 270.31937 807.410234 
L 285.115386 796.608733 
L 303.89102 778.261669 
L 308.078802 772.448751 
L 314.033944 762.335333 
L 312.189034 757.827485 
L 308.323702 755.260696 
L 321.927873 734.374062 
L 326.719741 730.572987 
L 335.438166 729.960782 
L 341.830045 726.640177 
L 344.64639 726.626564 
L 347.177019 725.387667 
L 352.781137 719.107553 
L 344.136183 715.105822 
L 335.209593 713.045965 
L 307.589003 715.228572 
L 303.956326 714.758015 
L 300.531814 712.82766 
L 298.311391 710.043578 
L 296.637911 702.900024 
L 294.613408 701.300774 
L 288.376632 701.300774 
L 282.233734 703.487675 
L 277.94391 703.275854 
L 273.731637 700.145494 
L 280.450049 692.825802 
L 271.788768 691.100605 
L 263.021363 692.538304 
L 255.719274 690.319995 
L 255.490701 685.723279 
L 258.800927 681.129875 
L 254.466205 676.773155 
L 253.568239 671.259225 
L 258.188678 668.545019 
L 263.233609 669.44531 
L 273.523473 665.36198 
L 286.69907 663.381175 
L 275.396955 659.348749 
L 270.894884 655.892175 
L 270.678556 650.600137 
L 271.57244 646.069222 
L 284.65824 638.392574 
L 298.605271 635.006726 
L 297.576692 629.945082 
L 298.552209 624.46368 
L 284.454157 622.877835 
L 270.531616 626.748213 
L 272.021422 616.266733 
L 275.356138 606.787657 
L 276.013285 600.527037 
L 275.347975 593.821315 
L 268.825483 596.688176 
L 268.062212 587.226435 
L 265.262194 580.728821 
L 255.600906 585.205411 
L 255.849887 576.625787 
L 258.633579 570.619612 
L 263.686673 568.012706 
L 268.703033 569.145069 
L 278.013298 569.03324 
L 286.992949 564.516386 
L 299.935892 563.355149 
L 320.564599 564.775185 
L 334.744284 577.512228 
L 338.405533 575.236529 
L 344.074958 567.187761 
L 346.7362 566.299768 
L 368.107769 569.809008 
L 381.377244 574.440526 
L 384.928288 572.994877 
L 383.01399 564.061712 
L 378.442531 557.860659 
L 384.185426 549.725012 
L 391.160982 544.210773 
L 395.822237 541.458737 
L 406.581492 538.037961 
L 411.2754 534.81204 
L 414.401951 524.313801 
L 419.377494 515.553272 
L 392.369153 520.10784 
L 366.675106 509.717418 
L 370.748603 502.363182 
L 376.173128 498.183905 
L 385.536455 494.985559 
L 386.422175 491.14099 
L 391.160982 487.938798 
L 398.993687 479.528256 
L 396.116117 468.525263 
L 397.658984 460.464114 
L 403.299837 455.207354 
L 405.063114 447.648709 
L 407.577417 442.080432 
L 419.02239 440.087411 
L 430.022462 434.90523 
L 433.993917 435.40578 
L 446.985839 434.211541 
L 451.385868 436.299511 
L 450.38178 427.134057 
L 458.361424 425.938122 
L 461.479812 427.771311 
L 462.85125 434.268756 
L 466.475764 438.408174 
L 467.594138 445.600486 
L 465.165551 451.151146 
L 461.1043 455.421135 
L 464.81861 459.787696 
L 459.059388 467.672005 
L 465.275756 464.314646 
L 474.132957 456.58967 
L 473.671729 450.266818 
L 472.165597 442.308978 
L 469.700275 435.119757 
L 470.834976 427.191341 
L 475.8146 422.227016 
L 488.900401 419.732513 
L 483.533019 410.706104 
L 488.312642 409.880257 
L 493.504513 411.761582 
L 501.141298 418.793213 
L 509.088289 424.304954 
L 517.32916 428.666212 
L 509.41074 437.393252 
L 499.675982 443.437296 
L 495.847385 450.017186 
L 499.194346 455.143218 
" style="fill:#ffffff;stroke:#000000;"/>
    <path clip-path="url(#pa7ee184298)" d="M 730.457093 580.979934 
L 713.554941 599.046033 
L 706.71408 595.804608 
L 700.889552 597.515968 
L 699.252806 597.00122 
L 702.579359 590.479529 
L 706.49367 575.327295 
L 713.505961 569.312808 
L 722.383571 553.580509 
L 729.399943 549.20608 
L 731.836694 549.816171 
L 733.371398 551.302566 
L 736.648971 569.005283 
L 732.110165 575.257475 
L 730.457093 580.979934 
" style="fill:#ffffff;stroke:#000000;"/>
    <path clip-path="url(#pa7ee184298)" d="M 546.925273 227.723924 
L 542.174221 228.568804 
L 541.831362 226.419303 
L 550.076314 216.142456 
L 555.415125 214.448904 
L 557.284525 215.451725 
L 553.406948 221.405612 
L 546.925273 227.723924 
" style="fill:#ffffff;stroke:#000000;"/>
    <path clip-path="url(#pa7ee184298)" d="M 672.497528 397.658391 
L 661.958683 397.766343 
L 658.150495 396.492378 
L 653.599444 392.906502 
L 648.485125 372.616909 
L 650.313708 365.420607 
L 652.411681 361.89514 
L 654.717819 359.157262 
L 660.277039 358.005229 
L 665.807688 361.858933 
L 667.901579 365.442318 
L 672.534263 379.183428 
L 673.391411 390.947016 
L 672.497528 397.658391 
" style="fill:#ffffff;stroke:#000000;"/>
    <path clip-path="url(#pa7ee184298)" d="M 616.284913 264.140874 
L 582.990816 272.523446 
L 571.517271 271.780621 
L 570.48053 267.667605 
L 572.766259 264.921506 
L 582.264281 262.247771 
L 586.109204 242.03304 
L 571.749926 232.709884 
L 570.994819 230.087794 
L 572.117275 225.633422 
L 573.782592 223.645997 
L 582.496935 218.919391 
L 586.158184 217.872629 
L 589.129632 218.511102 
L 595.243958 223.957505 
L 602.174616 235.382589 
L 611.423657 237.195767 
L 617.709412 242.025646 
L 616.284913 264.140874 
" style="fill:#ffffff;stroke:#000000;"/>
    <path clip-path="url(#pa7ee184298)" d="M 586.941863 326.215963 
L 589.958209 345.346771 
L 592.901086 357.179102 
L 593.092924 361.214413 
L 590.32964 366.817171 
L 576.554039 374.264655 
L 572.215235 374.30801 
L 572.035642 372.50126 
L 575.145867 364.921236 
L 572.468298 356.309367 
L 573.774429 349.753166 
L 572.492788 348.548455 
L 569.807056 349.477411 
L 559.937603 359.888938 
L 556.643704 360.917475 
L 556.284518 358.802258 
L 558.72535 350.275613 
L 559.027393 344.438942 
L 560.496791 340.849808 
L 563.178441 337.534785 
L 566.37438 335.047271 
L 568.949908 334.690785 
L 571.696864 337.258447 
L 579.688754 330.090876 
L 586.941863 326.215963 
" style="fill:#ffffff;stroke:#000000;"/>
    <path clip-path="url(#pa7ee184298)" d="M 600.219501 343.501913 
L 598.476632 345.099855 
L 594.243952 344.656834 
L 592.672513 342.259571 
L 591.807201 338.574569 
L 591.701078 331.801713 
L 594.26436 326.951814 
L 605.093003 319.618268 
L 600.199093 317.013568 
L 600.003173 315.181549 
L 602.811355 309.075492 
L 614.468575 299.56026 
L 617.591044 297.832524 
L 620.693105 298.096111 
L 614.668576 315.006346 
L 600.219501 343.501913 
" style="fill:#ffffff;stroke:#000000;"/>
    <path clip-path="url(#pa7ee184298)" d="M 748.45313 703.125525 
L 751.955194 705.728418 
L 760.77566 705.318589 
L 757.857274 711.115058 
L 748.151087 717.573986 
L 741.612269 723.944233 
L 733.718339 729.273676 
L 729.889743 723.161093 
L 725.448897 723.392641 
L 718.657016 711.654137 
L 717.432518 694.016719 
L 726.306045 689.416003 
L 738.563269 689.703652 
L 748.45313 703.125525 
" style="fill:#ffffff;stroke:#000000;"/>
    <path clip-path="url(#pa7ee184298)" d="M 581.109171 -48.807185 
L 570.48053 -21.079955 
L 566.321319 -20.398585 
L 562.668233 -13.488884 
L 551.357955 -5.877127 
L 561.227408 -5.72268 
L 563.998855 -3.190351 
L 564.076406 2.264192 
L 562.174353 5.432658 
L 549.390595 18.034949 
L 540.5987 22.808315 
L 531.12925 35.931578 
L 526.349627 36.092552 
L 521.618984 44.426269 
L 517.72508 48.083715 
L 515.537311 48.091364 
L 513.023009 46.247636 
L 507.149501 38.092844 
L 517.806714 30.064408 
L 518.794475 25.54292 
L 526.092483 20.841039 
L 525.480234 19.37282 
L 513.91281 12.749567 
L 509.353597 8.291232 
L 509.786253 5.95671 
L 515.353636 0.82199 
L 512.712803 0.143179 
L 510.929117 -2.626908 
L 507.696443 -3.684375 
L 506.72909 -6.270987 
L 506.133167 -13.063591 
L 506.998479 -20.019222 
L 510.36993 -23.093575 
L 511.749531 -26.386619 
L 513.116887 -27.402039 
L 518.341411 -25.650359 
L 523.635323 -20.081157 
L 529.814956 -22.226081 
L 536.990513 -21.165132 
L 537.137453 -22.458432 
L 531.868031 -36.168618 
L 532.810894 -38.972148 
L 535.668056 -42.17345 
L 552.227348 -51.97516 
L 572.876464 -68.497769 
L 577.868334 -71.090901 
L 579.374466 -68.833559 
L 581.480602 -60.265482 
L 581.109171 -48.807185 
" style="fill:#ffffff;stroke:#000000;"/>
    <path clip-path="url(#pa7ee184298)" d="M 574.39076 169.798114 
L 571.909111 171.774378 
L 568.774396 171.392653 
L 565.668253 168.847167 
L 561.55394 161.63129 
L 570.770328 156.620523 
L 574.460148 159.561506 
L 575.876484 162.920776 
L 575.937709 166.645156 
L 574.39076 169.798114 
" style="fill:#ffffff;stroke:#000000;"/>
    <path clip-path="url(#pa7ee184298)" d="M 585.619405 86.345068 
L 585.501037 93.216787 
L 584.027558 101.285185 
L 585.945938 109.841547 
L 586.386757 115.944283 
L 589.909229 117.886408 
L 592.064345 120.696404 
L 607.725673 123.837123 
L 622.293116 122.953971 
L 625.097216 125.467198 
L 625.415585 129.449862 
L 623.113529 133.844155 
L 614.819597 141.847679 
L 604.925655 154.759117 
L 601.974615 157.445952 
L 598.778675 157.558501 
L 596.484783 156.40289 
L 594.843956 133.414674 
L 584.113273 136.360114 
L 575.472399 136.021203 
L 570.741756 133.21876 
L 567.423367 127.813385 
L 560.733527 113.895643 
L 541.255848 108.411335 
L 535.749689 100.724408 
L 534.092535 96.076919 
L 534.794581 93.505141 
L 538.85175 87.780844 
L 543.929335 89.823728 
L 547.072212 88.570745 
L 548.982429 86.010762 
L 548.941613 83.905698 
L 546.284452 78.909696 
L 546.157921 77.357531 
L 566.076419 71.022732 
L 567.819288 61.110423 
L 572.141765 60.301424 
L 577.076492 63.544356 
L 583.83572 73.833149 
L 585.619405 86.345068 
" style="fill:#ffffff;stroke:#000000;"/>
    <path clip-path="url(#pa7ee184298)" d="M 496.94127 58.583826 
L 506.369904 67.380066 
L 498.85965 81.936718 
L 487.328962 81.868286 
L 471.096202 71.236038 
L 471.022732 69.064518 
L 472.377843 65.870494 
L 474.810512 63.338389 
L 477.341141 62.735704 
L 481.365657 64.482553 
L 486.969776 61.682758 
L 491.45552 62.567856 
L 496.94127 58.583826 
" style="fill:#ffffff;stroke:#000000;"/>
    <path clip-path="url(#pa7ee184298)" d="M 493.239205 146.653427 
L 489.712651 147.510365 
L 485.084049 146.683497 
L 482.235051 144.292423 
L 479.357481 134.81602 
L 478.818702 129.072835 
L 480.100343 118.385057 
L 479.806464 105.587692 
L 489.349383 105.186363 
L 491.794298 107.033754 
L 493.431043 144.954205 
L 493.239205 146.653427 
" style="fill:#ffffff;stroke:#000000;"/>
    <path clip-path="url(#pa7ee184298)" d="M 267.682618 619.704872 
L 267.315269 623.785074 
L 261.131555 618.72077 
L 258.139698 613.117976 
L 241.127341 610.564451 
L 248.204939 604.981721 
L 251.658023 606.648759 
L 263.65402 606.919608 
L 267.013226 609.19703 
L 267.682618 619.704872 
" style="fill:#ffffff;stroke:#000000;"/>
    <path clip-path="url(#pa7ee184298)" d="M 479.275848 169.685806 
L 471.928861 171.796832 
L 469.202312 170.561752 
L 468.737003 168.622511 
L 470.410483 163.340546 
L 476.051337 161.473833 
L 480.128915 164.337376 
L 480.777898 166.937308 
L 479.275848 169.685806 
" style="fill:#ffffff;stroke:#000000;"/>
    <path clip-path="url(#pa7ee184298)" d="M 1010.19771 1060.561908 
L 1003.193583 1065.115364 
L 1000.981323 1070.450304 
L 999.287434 1072.559845 
L 994.658833 1073.929375 
L 990.075129 1073.967949 
L 972.601544 1063.260895 
L 968.58111 1063.743883 
L 972.572973 1058.83497 
L 983.426106 1054.844416 
L 989.532268 1049.567001 
L 1003.622157 1054.689641 
L 1010.19771 1060.561908 
" style="fill:#ffffff;stroke:#000000;"/>
   </g>
   <g id="PathCollection_1">
    <defs>
     <path d="M 0 4.1833 
C 1.109424 4.1833 2.173559 3.742521 2.95804 2.95804 
C 3.742521 2.173559 4.1833 1.109424 4.1833 0 
C 4.1833 -1.109424 3.742521 -2.173559 2.95804 -2.95804 
C 2.173559 -3.742521 1.109424 -4.1833 0 -4.1833 
C -1.109424 -4.1833 -2.173559 -3.742521 -2.95804 -2.95804 
C -3.742521 -2.173559 -4.1833 -1.109424 -4.1833 0 
C -4.1833 1.109424 -3.742521 2.173559 -2.95804 2.95804 
C -2.173559 3.742521 -1.109424 4.1833 0 4.1833 
z
" id="C0_0_e4fff8c999"/>
    </defs>
    <g clip-path="url(#pa7ee184298)">
     <use style="fill:#fff5f0;fill-opacity:0.7;stroke:#fff5f0;stroke-opacity:0.7;" x="1004.598121" xlink:href="#C0_0_e4fff8c999" y="797.685302"/>
    </g>
    <g clip-path="url(#pa7ee184298)">
     <use style="fill:#fff4ee;fill-opacity:0.7;stroke:#fff4ee;stroke-opacity:0.7;" x="1004.598121" xlink:href="#C0_0_e4fff8c999" y="797.685302"/>
    </g>
    <g clip-path="url(#pa7ee184298)">
     <use style="fill:#fff2ec;fill-opacity:0.7;stroke:#fff2ec;stroke-opacity:0.7;" x="575.929005" xlink:href="#C0_0_e4fff8c999" y="700.124857"/>
    </g>
    <g clip-path="url(#pa7ee184298)">
     <use style="fill:#fff1ea;fill-opacity:0.7;stroke:#fff1ea;stroke-opacity:0.7;" x="588.869691" xlink:href="#C0_0_e4fff8c999" y="709.213444"/>
    </g>
    <g clip-path="url(#pa7ee184298)">
     <use style="fill:#fff0e8;fill-opacity:0.7;stroke:#fff0e8;stroke-opacity:0.7;" x="394.717512" xlink:href="#C0_0_e4fff8c999" y="763.388388"/>
    </g>
    <g clip-path="url(#pa7ee184298)">
     <use style="fill:#ffeee7;fill-opacity:0.7;stroke:#ffeee7;stroke-opacity:0.7;" x="540.480399" xlink:href="#C0_0_e4fff8c999" y="704.618063"/>
    </g>
    <g clip-path="url(#pa7ee184298)">
     <use style="fill:#ffede5;fill-opacity:0.7;stroke:#ffede5;stroke-opacity:0.7;" x="542.109197" xlink:href="#C0_0_e4fff8c999" y="712.96511"/>
    </g>
    <g clip-path="url(#pa7ee184298)">
     <use style="fill:#ffece3;fill-opacity:0.7;stroke:#ffece3;stroke-opacity:0.7;" x="540.480399" xlink:href="#C0_0_e4fff8c999" y="704.618063"/>
    </g>
    <g clip-path="url(#pa7ee184298)">
     <use style="fill:#feeae1;fill-opacity:0.7;stroke:#feeae1;stroke-opacity:0.7;" x="540.28613" xlink:href="#C0_0_e4fff8c999" y="706.993815"/>
    </g>
    <g clip-path="url(#pa7ee184298)">
     <use style="fill:#fee9df;fill-opacity:0.7;stroke:#fee9df;stroke-opacity:0.7;" x="542.109197" xlink:href="#C0_0_e4fff8c999" y="712.96511"/>
    </g>
    <g clip-path="url(#pa7ee184298)">
     <use style="fill:#fee8dd;fill-opacity:0.7;stroke:#fee8dd;stroke-opacity:0.7;" x="542.020254" xlink:href="#C0_0_e4fff8c999" y="711.351193"/>
    </g>
    <g clip-path="url(#pa7ee184298)">
     <use style="fill:#fee7db;fill-opacity:0.7;stroke:#fee7db;stroke-opacity:0.7;" x="540.28613" xlink:href="#C0_0_e4fff8c999" y="706.993815"/>
    </g>
    <g clip-path="url(#pa7ee184298)">
     <use style="fill:#fee5d9;fill-opacity:0.7;stroke:#fee5d9;stroke-opacity:0.7;" x="525.293919" xlink:href="#C0_0_e4fff8c999" y="715.830103"/>
    </g>
    <g clip-path="url(#pa7ee184298)">
     <use style="fill:#fee4d8;fill-opacity:0.7;stroke:#fee4d8;stroke-opacity:0.7;" x="515.318087" xlink:href="#C0_0_e4fff8c999" y="749.07449"/>
    </g>
    <g clip-path="url(#pa7ee184298)">
     <use style="fill:#fee3d6;fill-opacity:0.7;stroke:#fee3d6;stroke-opacity:0.7;" x="590.236761" xlink:href="#C0_0_e4fff8c999" y="721.384926"/>
    </g>
    <g clip-path="url(#pa7ee184298)">
     <use style="fill:#fee1d4;fill-opacity:0.7;stroke:#fee1d4;stroke-opacity:0.7;" x="576.156877" xlink:href="#C0_0_e4fff8c999" y="699.643746"/>
    </g>
    <g clip-path="url(#pa7ee184298)">
     <use style="fill:#fee0d2;fill-opacity:0.7;stroke:#fee0d2;stroke-opacity:0.7;" x="1048.452443" xlink:href="#C0_0_e4fff8c999" y="954.467738"/>
    </g>
    <g clip-path="url(#pa7ee184298)">
     <use style="fill:#fedecf;fill-opacity:0.7;stroke:#fedecf;stroke-opacity:0.7;" x="543.149002" xlink:href="#C0_0_e4fff8c999" y="557.372316"/>
    </g>
    <g clip-path="url(#pa7ee184298)">
     <use style="fill:#fedbcc;fill-opacity:0.7;stroke:#fedbcc;stroke-opacity:0.7;" x="567.017805" xlink:href="#C0_0_e4fff8c999" y="749.852551"/>
    </g>
    <g clip-path="url(#pa7ee184298)">
     <use style="fill:#fed9c9;fill-opacity:0.7;stroke:#fed9c9;stroke-opacity:0.7;" x="584.348597" xlink:href="#C0_0_e4fff8c999" y="775.9753"/>
    </g>
    <g clip-path="url(#pa7ee184298)">
     <use style="fill:#fdd7c6;fill-opacity:0.7;stroke:#fdd7c6;stroke-opacity:0.7;" x="472.881827" xlink:href="#C0_0_e4fff8c999" y="709.546862"/>
    </g>
    <g clip-path="url(#pa7ee184298)">
     <use style="fill:#fdd3c1;fill-opacity:0.7;stroke:#fdd3c1;stroke-opacity:0.7;" x="575.95751" xlink:href="#C0_0_e4fff8c999" y="699.154055"/>
    </g>
    <g clip-path="url(#pa7ee184298)">
     <use style="fill:#fdd1be;fill-opacity:0.7;stroke:#fdd1be;stroke-opacity:0.7;" x="584.66792" xlink:href="#C0_0_e4fff8c999" y="710.927729"/>
    </g>
    <g clip-path="url(#pa7ee184298)">
     <use style="fill:#fdcebb;fill-opacity:0.7;stroke:#fdcebb;stroke-opacity:0.7;" x="552.990501" xlink:href="#C0_0_e4fff8c999" y="707.429444"/>
    </g>
    <g clip-path="url(#pa7ee184298)">
     <use style="fill:#fdccb8;fill-opacity:0.7;stroke:#fdccb8;stroke-opacity:0.7;" x="548.797089" xlink:href="#C0_0_e4fff8c999" y="712.006733"/>
    </g>
    <g clip-path="url(#pa7ee184298)">
     <use style="fill:#fdcab5;fill-opacity:0.7;stroke:#fdcab5;stroke-opacity:0.7;" x="582.661703" xlink:href="#C0_0_e4fff8c999" y="707.068916"/>
    </g>
    <g clip-path="url(#pa7ee184298)">
     <use style="fill:#fdc7b2;fill-opacity:0.7;stroke:#fdc7b2;stroke-opacity:0.7;" x="580.700291" xlink:href="#C0_0_e4fff8c999" y="707.822811"/>
    </g>
    <g clip-path="url(#pa7ee184298)">
     <use style="fill:#fdc5ae;fill-opacity:0.7;stroke:#fdc5ae;stroke-opacity:0.7;" x="578.159835" xlink:href="#C0_0_e4fff8c999" y="706.445982"/>
    </g>
    <g clip-path="url(#pa7ee184298)">
     <use style="fill:#fcc3ab;fill-opacity:0.7;stroke:#fcc3ab;stroke-opacity:0.7;" x="577.382425" xlink:href="#C0_0_e4fff8c999" y="707.641443"/>
    </g>
    <g clip-path="url(#pa7ee184298)">
     <use style="fill:#fcc1a8;fill-opacity:0.7;stroke:#fcc1a8;stroke-opacity:0.7;" x="578.915593" xlink:href="#C0_0_e4fff8c999" y="710.32225"/>
    </g>
    <g clip-path="url(#pa7ee184298)">
     <use style="fill:#fcbea5;fill-opacity:0.7;stroke:#fcbea5;stroke-opacity:0.7;" x="582.917495" xlink:href="#C0_0_e4fff8c999" y="705.997692"/>
    </g>
    <g clip-path="url(#pa7ee184298)">
     <use style="fill:#fcbca2;fill-opacity:0.7;stroke:#fcbca2;stroke-opacity:0.7;" x="582.677" xlink:href="#C0_0_e4fff8c999" y="713.082888"/>
    </g>
    <g clip-path="url(#pa7ee184298)">
     <use style="fill:#fcb99f;fill-opacity:0.7;stroke:#fcb99f;stroke-opacity:0.7;" x="582.915991" xlink:href="#C0_0_e4fff8c999" y="706.013918"/>
    </g>
    <g clip-path="url(#pa7ee184298)">
     <use style="fill:#fcb79c;fill-opacity:0.7;stroke:#fcb79c;stroke-opacity:0.7;" x="540.480148" xlink:href="#C0_0_e4fff8c999" y="704.617923"/>
    </g>
    <g clip-path="url(#pa7ee184298)">
     <use style="fill:#fcb499;fill-opacity:0.7;stroke:#fcb499;stroke-opacity:0.7;" x="540.480148" xlink:href="#C0_0_e4fff8c999" y="704.617923"/>
    </g>
    <g clip-path="url(#pa7ee184298)">
     <use style="fill:#fcb296;fill-opacity:0.7;stroke:#fcb296;stroke-opacity:0.7;" x="540.480148" xlink:href="#C0_0_e4fff8c999" y="704.617923"/>
    </g>
    <g clip-path="url(#pa7ee184298)">
     <use style="fill:#fcaf93;fill-opacity:0.7;stroke:#fcaf93;stroke-opacity:0.7;" x="582.917495" xlink:href="#C0_0_e4fff8c999" y="705.997692"/>
    </g>
    <g clip-path="url(#pa7ee184298)">
     <use style="fill:#fcad90;fill-opacity:0.7;stroke:#fcad90;stroke-opacity:0.7;" x="575.677977" xlink:href="#C0_0_e4fff8c999" y="699.223793"/>
    </g>
    <g clip-path="url(#pa7ee184298)">
     <use style="fill:#fcaa8d;fill-opacity:0.7;stroke:#fcaa8d;stroke-opacity:0.7;" x="582.917495" xlink:href="#C0_0_e4fff8c999" y="705.997692"/>
    </g>
    <g clip-path="url(#pa7ee184298)">
     <use style="fill:#fca78b;fill-opacity:0.7;stroke:#fca78b;stroke-opacity:0.7;" x="574.179499" xlink:href="#C0_0_e4fff8c999" y="702.681541"/>
    </g>
    <g clip-path="url(#pa7ee184298)">
     <use style="fill:#fca588;fill-opacity:0.7;stroke:#fca588;stroke-opacity:0.7;" x="540.480148" xlink:href="#C0_0_e4fff8c999" y="704.617923"/>
    </g>
    <g clip-path="url(#pa7ee184298)">
     <use style="fill:#fca285;fill-opacity:0.7;stroke:#fca285;stroke-opacity:0.7;" x="540.480148" xlink:href="#C0_0_e4fff8c999" y="704.617923"/>
    </g>
    <g clip-path="url(#pa7ee184298)">
     <use style="fill:#fc9e80;fill-opacity:0.7;stroke:#fc9e80;stroke-opacity:0.7;" x="574.179499" xlink:href="#C0_0_e4fff8c999" y="702.681541"/>
    </g>
    <g clip-path="url(#pa7ee184298)">
     <use style="fill:#fc9c7d;fill-opacity:0.7;stroke:#fc9c7d;stroke-opacity:0.7;" x="575.677977" xlink:href="#C0_0_e4fff8c999" y="699.223793"/>
    </g>
    <g clip-path="url(#pa7ee184298)">
     <use style="fill:#fc997a;fill-opacity:0.7;stroke:#fc997a;stroke-opacity:0.7;" x="576.150608" xlink:href="#C0_0_e4fff8c999" y="697.272352"/>
    </g>
    <g clip-path="url(#pa7ee184298)">
     <use style="fill:#fc9777;fill-opacity:0.7;stroke:#fc9777;stroke-opacity:0.7;" x="576.830465" xlink:href="#C0_0_e4fff8c999" y="697.403468"/>
    </g>
    <g clip-path="url(#pa7ee184298)">
     <use style="fill:#fc9474;fill-opacity:0.7;stroke:#fc9474;stroke-opacity:0.7;" x="576.716528" xlink:href="#C0_0_e4fff8c999" y="697.601396"/>
    </g>
    <g clip-path="url(#pa7ee184298)">
     <use style="fill:#fc9272;fill-opacity:0.7;stroke:#fc9272;stroke-opacity:0.7;" x="576.716528" xlink:href="#C0_0_e4fff8c999" y="697.601396"/>
    </g>
    <g clip-path="url(#pa7ee184298)">
     <use style="fill:#fc8f6f;fill-opacity:0.7;stroke:#fc8f6f;stroke-opacity:0.7;" x="540.480148" xlink:href="#C0_0_e4fff8c999" y="704.617923"/>
    </g>
    <g clip-path="url(#pa7ee184298)">
     <use style="fill:#fc8d6d;fill-opacity:0.7;stroke:#fc8d6d;stroke-opacity:0.7;" x="540.480148" xlink:href="#C0_0_e4fff8c999" y="704.617923"/>
    </g>
    <g clip-path="url(#pa7ee184298)">
     <use style="fill:#fc8a6a;fill-opacity:0.7;stroke:#fc8a6a;stroke-opacity:0.7;" x="540.480148" xlink:href="#C0_0_e4fff8c999" y="704.617923"/>
    </g>
    <g clip-path="url(#pa7ee184298)">
     <use style="fill:#fc8767;fill-opacity:0.7;stroke:#fc8767;stroke-opacity:0.7;" x="540.532226" xlink:href="#C0_0_e4fff8c999" y="704.63835"/>
    </g>
    <g clip-path="url(#pa7ee184298)">
     <use style="fill:#fc8565;fill-opacity:0.7;stroke:#fc8565;stroke-opacity:0.7;" x="585.16705" xlink:href="#C0_0_e4fff8c999" y="684.97676"/>
    </g>
    <g clip-path="url(#pa7ee184298)">
     <use style="fill:#fc8262;fill-opacity:0.7;stroke:#fc8262;stroke-opacity:0.7;" x="583.601532" xlink:href="#C0_0_e4fff8c999" y="707.10318"/>
    </g>
    <g clip-path="url(#pa7ee184298)">
     <use style="fill:#fc8060;fill-opacity:0.7;stroke:#fc8060;stroke-opacity:0.7;" x="539.575511" xlink:href="#C0_0_e4fff8c999" y="704.641568"/>
    </g>
    <g clip-path="url(#pa7ee184298)">
     <use style="fill:#fb7d5d;fill-opacity:0.7;stroke:#fb7d5d;stroke-opacity:0.7;" x="412.888825" xlink:href="#C0_0_e4fff8c999" y="856.983393"/>
    </g>
    <g clip-path="url(#pa7ee184298)">
     <use style="fill:#fb7b5b;fill-opacity:0.7;stroke:#fb7b5b;stroke-opacity:0.7;" x="574.726695" xlink:href="#C0_0_e4fff8c999" y="699.302353"/>
    </g>
    <g clip-path="url(#pa7ee184298)">
     <use style="fill:#fb7858;fill-opacity:0.7;stroke:#fb7858;stroke-opacity:0.7;" x="574.726695" xlink:href="#C0_0_e4fff8c999" y="699.302353"/>
    </g>
    <g clip-path="url(#pa7ee184298)">
     <use style="fill:#fb7656;fill-opacity:0.7;stroke:#fb7656;stroke-opacity:0.7;" x="575.664769" xlink:href="#C0_0_e4fff8c999" y="698.504245"/>
    </g>
    <g clip-path="url(#pa7ee184298)">
     <use style="fill:#fb7353;fill-opacity:0.7;stroke:#fb7353;stroke-opacity:0.7;" x="574.726695" xlink:href="#C0_0_e4fff8c999" y="699.302353"/>
    </g>
    <g clip-path="url(#pa7ee184298)">
     <use style="fill:#fb7151;fill-opacity:0.7;stroke:#fb7151;stroke-opacity:0.7;" x="574.726695" xlink:href="#C0_0_e4fff8c999" y="699.302353"/>
    </g>
    <g clip-path="url(#pa7ee184298)">
     <use style="fill:#fb6e4e;fill-opacity:0.7;stroke:#fb6e4e;stroke-opacity:0.7;" x="576.012263" xlink:href="#C0_0_e4fff8c999" y="698.006336"/>
    </g>
    <g clip-path="url(#pa7ee184298)">
     <use style="fill:#fb6c4c;fill-opacity:0.7;stroke:#fb6c4c;stroke-opacity:0.7;" x="577.447962" xlink:href="#C0_0_e4fff8c999" y="697.467763"/>
    </g>
    <g clip-path="url(#pa7ee184298)">
     <use style="fill:#fa6849;fill-opacity:0.7;stroke:#fa6849;stroke-opacity:0.7;" x="580.875417" xlink:href="#C0_0_e4fff8c999" y="697.140814"/>
    </g>
    <g clip-path="url(#pa7ee184298)">
     <use style="fill:#fa6547;fill-opacity:0.7;stroke:#fa6547;stroke-opacity:0.7;" x="578.904308" xlink:href="#C0_0_e4fff8c999" y="704.657798"/>
    </g>
    <g clip-path="url(#pa7ee184298)">
     <use style="fill:#f96245;fill-opacity:0.7;stroke:#f96245;stroke-opacity:0.7;" x="582.684941" xlink:href="#C0_0_e4fff8c999" y="697.812904"/>
    </g>
    <g clip-path="url(#pa7ee184298)">
     <use style="fill:#f85f43;fill-opacity:0.7;stroke:#f85f43;stroke-opacity:0.7;" x="583.15239" xlink:href="#C0_0_e4fff8c999" y="696.888656"/>
    </g>
    <g clip-path="url(#pa7ee184298)">
     <use style="fill:#f75c41;fill-opacity:0.7;stroke:#f75c41;stroke-opacity:0.7;" x="585.401443" xlink:href="#C0_0_e4fff8c999" y="696.357688"/>
    </g>
    <g clip-path="url(#pa7ee184298)">
     <use style="fill:#f7593f;fill-opacity:0.7;stroke:#f7593f;stroke-opacity:0.7;" x="654.560267" xlink:href="#C0_0_e4fff8c999" y="729.85602"/>
    </g>
    <g clip-path="url(#pa7ee184298)">
     <use style="fill:#f6563d;fill-opacity:0.7;stroke:#f6563d;stroke-opacity:0.7;" x="1173.368225" xlink:href="#C0_0_e4fff8c999" y="801.322335"/>
    </g>
    <g clip-path="url(#pa7ee184298)">
     <use style="fill:#f5533b;fill-opacity:0.7;stroke:#f5533b;stroke-opacity:0.7;" x="592.951591" xlink:href="#C0_0_e4fff8c999" y="695.124652"/>
    </g>
    <g clip-path="url(#pa7ee184298)">
     <use style="fill:#f4503a;fill-opacity:0.7;stroke:#f4503a;stroke-opacity:0.7;" x="585.362155" xlink:href="#C0_0_e4fff8c999" y="696.815948"/>
    </g>
    <g clip-path="url(#pa7ee184298)">
     <use style="fill:#f44d38;fill-opacity:0.7;stroke:#f44d38;stroke-opacity:0.7;" x="585.362155" xlink:href="#C0_0_e4fff8c999" y="696.815948"/>
    </g>
    <g clip-path="url(#pa7ee184298)">
     <use style="fill:#f34a36;fill-opacity:0.7;stroke:#f34a36;stroke-opacity:0.7;" x="539.575511" xlink:href="#C0_0_e4fff8c999" y="704.641568"/>
    </g>
    <g clip-path="url(#pa7ee184298)">
     <use style="fill:#f24734;fill-opacity:0.7;stroke:#f24734;stroke-opacity:0.7;" x="577.247424" xlink:href="#C0_0_e4fff8c999" y="697.126245"/>
    </g>
    <g clip-path="url(#pa7ee184298)">
     <use style="fill:#f14432;fill-opacity:0.7;stroke:#f14432;stroke-opacity:0.7;" x="575.090991" xlink:href="#C0_0_e4fff8c999" y="697.28496"/>
    </g>
    <g clip-path="url(#pa7ee184298)">
     <use style="fill:#f14130;fill-opacity:0.7;stroke:#f14130;stroke-opacity:0.7;" x="577.427482" xlink:href="#C0_0_e4fff8c999" y="698.069645"/>
    </g>
    <g clip-path="url(#pa7ee184298)">
     <use style="fill:#f03f2e;fill-opacity:0.7;stroke:#f03f2e;stroke-opacity:0.7;" x="576.677742" xlink:href="#C0_0_e4fff8c999" y="699.068491"/>
    </g>
    <g clip-path="url(#pa7ee184298)">
     <use style="fill:#ef3c2c;fill-opacity:0.7;stroke:#ef3c2c;stroke-opacity:0.7;" x="575.918305" xlink:href="#C0_0_e4fff8c999" y="698.952817"/>
    </g>
    <g clip-path="url(#pa7ee184298)">
     <use style="fill:#ed392b;fill-opacity:0.7;stroke:#ed392b;stroke-opacity:0.7;" x="576.176522" xlink:href="#C0_0_e4fff8c999" y="699.759967"/>
    </g>
    <g clip-path="url(#pa7ee184298)">
     <use style="fill:#eb372a;fill-opacity:0.7;stroke:#eb372a;stroke-opacity:0.7;" x="575.432382" xlink:href="#C0_0_e4fff8c999" y="701.352101"/>
    </g>
    <g clip-path="url(#pa7ee184298)">
     <use style="fill:#e93529;fill-opacity:0.7;stroke:#e93529;stroke-opacity:0.7;" x="374.515321" xlink:href="#C0_0_e4fff8c999" y="853.663066"/>
    </g>
    <g clip-path="url(#pa7ee184298)">
     <use style="fill:#e63328;fill-opacity:0.7;stroke:#e63328;stroke-opacity:0.7;" x="385.508891" xlink:href="#C0_0_e4fff8c999" y="843.975503"/>
    </g>
    <g clip-path="url(#pa7ee184298)">
     <use style="fill:#e43027;fill-opacity:0.7;stroke:#e43027;stroke-opacity:0.7;" x="382.434697" xlink:href="#C0_0_e4fff8c999" y="830.732865"/>
    </g>
    <g clip-path="url(#pa7ee184298)">
     <use style="fill:#e12d26;fill-opacity:0.7;stroke:#e12d26;stroke-opacity:0.7;" x="589.962829" xlink:href="#C0_0_e4fff8c999" y="709.873692"/>
    </g>
    <g clip-path="url(#pa7ee184298)">
     <use style="fill:#de2b25;fill-opacity:0.7;stroke:#de2b25;stroke-opacity:0.7;" x="540.28613" xlink:href="#C0_0_e4fff8c999" y="706.993815"/>
    </g>
    <g clip-path="url(#pa7ee184298)">
     <use style="fill:#dc2924;fill-opacity:0.7;stroke:#dc2924;stroke-opacity:0.7;" x="576.004572" xlink:href="#C0_0_e4fff8c999" y="700.204945"/>
    </g>
    <g clip-path="url(#pa7ee184298)">
     <use style="fill:#da2723;fill-opacity:0.7;stroke:#da2723;stroke-opacity:0.7;" x="576.057068" xlink:href="#C0_0_e4fff8c999" y="700.78261"/>
    </g>
    <g clip-path="url(#pa7ee184298)">
     <use style="fill:#d82422;fill-opacity:0.7;stroke:#d82422;stroke-opacity:0.7;" x="435.254804" xlink:href="#C0_0_e4fff8c999" y="671.722817"/>
    </g>
    <g clip-path="url(#pa7ee184298)">
     <use style="fill:#d52221;fill-opacity:0.7;stroke:#d52221;stroke-opacity:0.7;" x="576.256436" xlink:href="#C0_0_e4fff8c999" y="697.059845"/>
    </g>
    <g clip-path="url(#pa7ee184298)">
     <use style="fill:#d32020;fill-opacity:0.7;stroke:#d32020;stroke-opacity:0.7;" x="1142.884004" xlink:href="#C0_0_e4fff8c999" y="982.419942"/>
    </g>
    <g clip-path="url(#pa7ee184298)">
     <use style="fill:#d11e1f;fill-opacity:0.7;stroke:#d11e1f;stroke-opacity:0.7;" x="581.132045" xlink:href="#C0_0_e4fff8c999" y="710.630169"/>
    </g>
    <g clip-path="url(#pa7ee184298)">
     <use style="fill:#cf1c1f;fill-opacity:0.7;stroke:#cf1c1f;stroke-opacity:0.7;" x="512.097941" xlink:href="#C0_0_e4fff8c999" y="549.183924"/>
    </g>
    <g clip-path="url(#pa7ee184298)">
     <use style="fill:#cc191e;fill-opacity:0.7;stroke:#cc191e;stroke-opacity:0.7;" x="603.55888" xlink:href="#C0_0_e4fff8c999" y="521.838519"/>
    </g>
    <g clip-path="url(#pa7ee184298)">
     <use style="fill:#ca181d;fill-opacity:0.7;stroke:#ca181d;stroke-opacity:0.7;" x="593.683024" xlink:href="#C0_0_e4fff8c999" y="750.737"/>
    </g>
    <g clip-path="url(#pa7ee184298)">
     <use style="fill:#c8171c;fill-opacity:0.7;stroke:#c8171c;stroke-opacity:0.7;" x="1064.498587" xlink:href="#C0_0_e4fff8c999" y="949.957469"/>
    </g>
    <g clip-path="url(#pa7ee184298)">
     <use style="fill:#c5171c;fill-opacity:0.7;stroke:#c5171c;stroke-opacity:0.7;" x="1088.59217" xlink:href="#C0_0_e4fff8c999" y="951.789105"/>
    </g>
    <g clip-path="url(#pa7ee184298)">
     <use style="fill:#c3161b;fill-opacity:0.7;stroke:#c3161b;stroke-opacity:0.7;" x="576.636447" xlink:href="#C0_0_e4fff8c999" y="700.568127"/>
    </g>
    <g clip-path="url(#pa7ee184298)">
     <use style="fill:#c1161b;fill-opacity:0.7;stroke:#c1161b;stroke-opacity:0.7;" x="577.786177" xlink:href="#C0_0_e4fff8c999" y="700.191083"/>
    </g>
    <g clip-path="url(#pa7ee184298)">
     <use style="fill:#be151a;fill-opacity:0.7;stroke:#be151a;stroke-opacity:0.7;" x="577.52796" xlink:href="#C0_0_e4fff8c999" y="700.66291"/>
    </g>
    <g clip-path="url(#pa7ee184298)">
     <use style="fill:#bc141a;fill-opacity:0.7;stroke:#bc141a;stroke-opacity:0.7;" x="577.371976" xlink:href="#C0_0_e4fff8c999" y="700.72675"/>
    </g>
    <g clip-path="url(#pa7ee184298)">
     <use style="fill:#b91419;fill-opacity:0.7;stroke:#b91419;stroke-opacity:0.7;" x="568.09481" xlink:href="#C0_0_e4fff8c999" y="753.810174"/>
    </g>
    <g clip-path="url(#pa7ee184298)">
     <use style="fill:#b71319;fill-opacity:0.7;stroke:#b71319;stroke-opacity:0.7;" x="576.889147" xlink:href="#C0_0_e4fff8c999" y="700.574848"/>
    </g>
    <g clip-path="url(#pa7ee184298)">
     <use style="fill:#b51318;fill-opacity:0.7;stroke:#b51318;stroke-opacity:0.7;" x="576.41033" xlink:href="#C0_0_e4fff8c999" y="700.313874"/>
    </g>
    <g clip-path="url(#pa7ee184298)">
     <use style="fill:#b21218;fill-opacity:0.7;stroke:#b21218;stroke-opacity:0.7;" x="576.118676" xlink:href="#C0_0_e4fff8c999" y="700.420281"/>
    </g>
    <g clip-path="url(#pa7ee184298)">
     <use style="fill:#af1117;fill-opacity:0.7;stroke:#af1117;stroke-opacity:0.7;" x="849.199038" xlink:href="#C0_0_e4fff8c999" y="690.94697"/>
    </g>
    <g clip-path="url(#pa7ee184298)">
     <use style="fill:#ac1117;fill-opacity:0.7;stroke:#ac1117;stroke-opacity:0.7;" x="575.351298" xlink:href="#C0_0_e4fff8c999" y="699.990021"/>
    </g>
    <g clip-path="url(#pa7ee184298)">
     <use style="fill:#aa1016;fill-opacity:0.7;stroke:#aa1016;stroke-opacity:0.7;" x="331.770103" xlink:href="#C0_0_e4fff8c999" y="700.70225"/>
    </g>
    <g clip-path="url(#pa7ee184298)">
     <use style="fill:#a81016;fill-opacity:0.7;stroke:#a81016;stroke-opacity:0.7;" x="576.181036" xlink:href="#C0_0_e4fff8c999" y="700.4137"/>
    </g>
    <g clip-path="url(#pa7ee184298)">
     <use style="fill:#a50f15;fill-opacity:0.7;stroke:#a50f15;stroke-opacity:0.7;" x="753.512337" xlink:href="#C0_0_e4fff8c999" y="349.249011"/>
    </g>
    <g clip-path="url(#pa7ee184298)">
     <use style="fill:#a10e15;fill-opacity:0.7;stroke:#a10e15;stroke-opacity:0.7;" x="309.108375" xlink:href="#C0_0_e4fff8c999" y="928.546883"/>
    </g>
    <g clip-path="url(#pa7ee184298)">
     <use style="fill:#9d0d14;fill-opacity:0.7;stroke:#9d0d14;stroke-opacity:0.7;" x="585.16705" xlink:href="#C0_0_e4fff8c999" y="684.97676"/>
    </g>
    <g clip-path="url(#pa7ee184298)">
     <use style="fill:#9a0c14;fill-opacity:0.7;stroke:#9a0c14;stroke-opacity:0.7;" x="1088.967333" xlink:href="#C0_0_e4fff8c999" y="951.200693"/>
    </g>
    <g clip-path="url(#pa7ee184298)">
     <use style="fill:#960b13;fill-opacity:0.7;stroke:#960b13;stroke-opacity:0.7;" x="576.48481" xlink:href="#C0_0_e4fff8c999" y="699.046925"/>
    </g>
    <g clip-path="url(#pa7ee184298)">
     <use style="fill:#920a13;fill-opacity:0.7;stroke:#920a13;stroke-opacity:0.7;" x="401.46442" xlink:href="#C0_0_e4fff8c999" y="902.398787"/>
    </g>
    <g clip-path="url(#pa7ee184298)">
     <use style="fill:#8e0912;fill-opacity:0.7;stroke:#8e0912;stroke-opacity:0.7;" x="575.780043" xlink:href="#C0_0_e4fff8c999" y="701.444491"/>
    </g>
    <g clip-path="url(#pa7ee184298)">
     <use style="fill:#8a0812;fill-opacity:0.7;stroke:#8a0812;stroke-opacity:0.7;" x="571.803804" xlink:href="#C0_0_e4fff8c999" y="728.894633"/>
    </g>
    <g clip-path="url(#pa7ee184298)">
     <use style="fill:#860811;fill-opacity:0.7;stroke:#860811;stroke-opacity:0.7;" x="576.660772" xlink:href="#C0_0_e4fff8c999" y="702.128134"/>
    </g>
    <g clip-path="url(#pa7ee184298)">
     <use style="fill:#820711;fill-opacity:0.7;stroke:#820711;stroke-opacity:0.7;" x="576.057068" xlink:href="#C0_0_e4fff8c999" y="700.78261"/>
    </g>
    <g clip-path="url(#pa7ee184298)">
     <use style="fill:#7e0610;fill-opacity:0.7;stroke:#7e0610;stroke-opacity:0.7;" x="575.804953" xlink:href="#C0_0_e4fff8c999" y="698.65508"/>
    </g>
    <g clip-path="url(#pa7ee184298)">
     <use style="fill:#7a0510;fill-opacity:0.7;stroke:#7a0510;stroke-opacity:0.7;" x="593.683024" xlink:href="#C0_0_e4fff8c999" y="750.737"/>
    </g>
    <g clip-path="url(#pa7ee184298)">
     <use style="fill:#77040f;fill-opacity:0.7;stroke:#77040f;stroke-opacity:0.7;" x="575.83722" xlink:href="#C0_0_e4fff8c999" y="698.645416"/>
    </g>
    <g clip-path="url(#pa7ee184298)">
     <use style="fill:#73030f;fill-opacity:0.7;stroke:#73030f;stroke-opacity:0.7;" x="410.145322" xlink:href="#C0_0_e4fff8c999" y="690.31043"/>
    </g>
    <g clip-path="url(#pa7ee184298)">
     <use style="fill:#6f020e;fill-opacity:0.7;stroke:#6f020e;stroke-opacity:0.7;" x="711.98506" xlink:href="#C0_0_e4fff8c999" y="704.80386"/>
    </g>
    <g clip-path="url(#pa7ee184298)">
     <use style="fill:#6b010e;fill-opacity:0.7;stroke:#6b010e;stroke-opacity:0.7;" x="576.019117" xlink:href="#C0_0_e4fff8c999" y="700.169101"/>
    </g>
    <g clip-path="url(#pa7ee184298)">
     <use style="fill:#67000d;fill-opacity:0.7;stroke:#67000d;stroke-opacity:0.7;" x="576.019117" xlink:href="#C0_0_e4fff8c999" y="700.169101"/>
    </g>
   </g>
   <g id="matplotlib.axis_1"/>
   <g id="matplotlib.axis_2"/>
   <g id="patch_3">
    <path d="M 180 1185.726993 
L 180 247.073007 
" style="fill:none;stroke:#000000;stroke-linecap:square;stroke-linejoin:miter;stroke-width:0.8;"/>
   </g>
   <g id="patch_4">
    <path d="M 1296 1185.726993 
L 1296 247.073007 
" style="fill:none;stroke:#000000;stroke-linecap:square;stroke-linejoin:miter;stroke-width:0.8;"/>
   </g>
   <g id="patch_5">
    <path d="M 180 1185.726993 
L 1296 1185.726993 
" style="fill:none;stroke:#000000;stroke-linecap:square;stroke-linejoin:miter;stroke-width:0.8;"/>
   </g>
   <g id="patch_6">
    <path d="M 180 247.073007 
L 1296 247.073007 
" style="fill:none;stroke:#000000;stroke-linecap:square;stroke-linejoin:miter;stroke-width:0.8;"/>
   </g>
  </g>
 </g>
 <defs>
  <clipPath id="pa7ee184298">
   <rect height="938.653987" width="1116" x="180" y="247.073007"/>
  </clipPath>
 </defs>
</svg>
